<?xml version="1.0" encoding="iso-8859-1"?>
<!-- Generator: Adobe Illustrator 18.0.0, SVG Export Plug-In . SVG Version: 6.00 Build 0)  -->
<!DOCTYPE svg PUBLIC "-//W3C//DTD SVG 1.1//EN" "http://www.w3.org/Graphics/SVG/1.1/DTD/svg11.dtd">
<svg version="1.1" id="Capa_1" xmlns="http://www.w3.org/2000/svg" xmlns:xlink="http://www.w3.org/1999/xlink" x="0px" y="0px"
	 viewBox="0 0 312.553 312.553" style="enable-background:new 0 0 312.553 312.553;" xml:space="preserve">
<path d="M302.553,0H10C4.477,0,0,4.478,0,10v292.553c0,5.522,4.477,10,10,10h292.553c5.523,0,10-4.478,10-10V10
	C312.553,4.478,308.076,0,302.553,0z M120.934,192.814c-9.358,8.189-21.313,12.699-33.66,12.699
	c-27.747,0-50.321-22.112-50.321-49.293c0-27.119,22.574-49.182,50.321-49.182c12.365,0,24.279,4.472,33.548,12.592
	c3.873,3.394,4.262,9.283,0.869,13.156c-3.392,3.874-9.283,4.265-13.157,0.869c-5.867-5.14-13.417-7.971-21.26-7.971
	c-17.465,0-31.674,13.698-31.674,30.535c0,16.898,14.209,30.646,31.674,30.646c7.83,0,15.423-2.872,21.381-8.086
	c3.874-3.391,9.765-2.998,13.156,0.877C125.201,183.533,124.809,189.423,120.934,192.814z M167.398,204.97
	c-12.343,0-24.936-5.205-32.864-13.586c-3.539-3.74-3.375-9.641,0.365-13.18c3.741-3.538,9.642-3.376,13.18,0.365
	c4.388,4.638,12.152,7.754,19.319,7.754c7.308,0,15.842-2.114,15.842-8.072c0.047-5.691-2.819-7.697-17.036-12.003
	c-12.52-3.791-31.439-9.521-31.439-31.366c0-16.328,14.14-27.299,35.185-27.299c9.358,0,19.563,2.839,26.631,7.408
	c4.324,2.796,5.563,8.567,2.767,12.892c-2.795,4.325-8.568,5.564-12.892,2.769c-4.026-2.604-10.814-4.422-16.507-4.422
	c-7.629,0-16.537,2.267-16.537,8.652c0,6.958,4.099,9.25,18.196,13.52c12.126,3.673,30.449,9.222,30.278,29.927
	C201.888,194.232,188.028,204.97,167.398,204.97z M241.109,204.97c-12.344,0-24.936-5.205-32.864-13.586
	c-3.539-3.74-3.376-9.641,0.365-13.18c3.741-3.538,9.642-3.376,13.18,0.365c4.388,4.638,12.152,7.754,19.319,7.754
	c7.308,0,15.842-2.114,15.842-8.072c0.047-5.691-2.818-7.697-17.035-12.003c-12.52-3.791-31.439-9.521-31.439-31.366
	c0-16.328,14.14-27.299,35.185-27.299c9.358,0,19.563,2.839,26.631,7.408c4.324,2.796,5.564,8.567,2.768,12.892
	c-2.795,4.325-8.567,5.564-12.892,2.769c-4.026-2.604-10.814-4.422-16.507-4.422c-7.629,0-16.538,2.267-16.538,8.652
	c0,6.958,4.099,9.25,18.197,13.52c12.125,3.673,30.449,9.222,30.278,29.927C275.599,194.232,261.739,204.97,241.109,204.97z"/>
<g>
</g>
<g>
</g>
<g>
</g>
<g>
</g>
<g>
</g>
<g>
</g>
<g>
</g>
<g>
</g>
<g>
</g>
<g>
</g>
<g>
</g>
<g>
</g>
<g>
</g>
<g>
</g>
<g>
</g>
</svg>
